<svg width="93" height="22" viewBox="0 0 93 22" fill="none" xmlns="http://www.w3.org/2000/svg">
<path d="M20.4909 3.07168C20.3804 1.98267 19.9429 1.76318 19.0933 1.76318H15.474C14.6797 1.76318 14.4885 1.89825 14.1869 2.77199L11.4725 11.598L8.75804 2.77199C8.45644 1.89825 8.26528 1.76318 7.47092 1.76318H3.84742C2.99783 1.76318 2.56029 1.98267 2.44985 3.07168L0.529778 20.3987C0.449067 21.0234 0.50429 21.2724 1.05227 21.3526L5.19402 21.952C5.82271 22.0322 5.9629 21.8971 6.04361 21.4328L6.94842 13.3159L8.89398 20.9179C9.08513 21.5426 9.33151 21.7916 9.96446 21.7916H12.9805C13.6092 21.7916 13.8598 21.5468 14.051 20.9179L15.971 13.3159L16.9013 21.4328C16.9821 21.8971 17.1222 22.0322 17.7509 21.952L21.8927 21.3526C22.4407 21.2724 22.4959 21.0276 22.4152 20.3987L20.4909 3.07168Z" fill="#103559"/>
<path d="M30.4633 6.39478C25.8151 6.39478 23.2889 9.58067 23.2889 13.9737C23.2889 18.3668 25.8151 21.5527 30.4633 21.5527C35.1114 21.5527 37.6376 18.3668 37.6376 13.9737C37.6376 9.58067 35.1114 6.39478 30.4633 6.39478ZM30.4633 16.5954C29.3475 16.5954 28.7497 15.5501 28.7497 13.9696C28.7497 12.3891 29.3475 11.3437 30.4633 11.3437C31.579 11.3437 32.1768 12.3891 32.1768 13.9696C32.1768 15.5501 31.579 16.5954 30.4633 16.5954Z" fill="#103559"/>
<path d="M48.0615 6.40319C47.1086 6.40319 39.9792 6.59251 39.5154 7.24459C39.3257 7.46336 39.3257 7.76206 39.3257 8.27531L39.5449 20.1139C39.5702 21.1993 39.819 21.5527 40.7676 21.5527H44.0899C45.0427 21.5527 45.3126 21.1993 45.3126 20.1139V11.9396C45.7215 11.805 45.8564 11.7503 46.3202 11.7209C46.9442 11.6956 47.2435 11.8849 47.4375 12.3982C47.5724 12.9409 47.6019 13.7571 47.6019 14.8677L47.5766 20.1097C47.5766 21.1951 47.876 21.5485 48.8288 21.5485H52.2312C53.1841 21.5485 53.4286 21.1951 53.4539 20.1097L53.6731 12.8862C53.6984 11.1193 53.319 9.49114 52.4209 8.29635C51.4681 7.10155 50.0515 6.39478 48.0657 6.39478L48.0615 6.40319Z" fill="#103559"/>
<path d="M60.8313 8.07886H57.4114C56.4757 8.07886 56.2065 8.40155 56.2065 9.48699V20.1193C56.2065 21.2005 56.4757 21.5525 57.4114 21.5525H60.8851C61.8208 21.5525 62.1148 21.2005 62.1148 20.1193L62.061 9.48699C62.061 8.43089 61.767 8.07886 60.8313 8.07886Z" fill="#103559"/>
<path d="M59.3717 0.921143C57.3462 0.921143 56.2065 2.16842 56.2065 3.86851C56.2065 5.5686 57.3462 6.81588 59.3717 6.81588C61.3972 6.81588 62.5368 5.5686 62.5368 3.86851C62.5368 2.16842 61.3972 0.921143 59.3717 0.921143Z" fill="#103559"/>
<path d="M74.0575 6.83578H71.9538V3.17527C71.9538 2.09099 71.6753 1.76318 70.7113 1.76318H67.4466C66.4783 1.76318 66.1741 2.11621 66.1741 3.17527V6.83578H64.516C63.6034 6.83578 63.3806 6.99968 63.3806 7.84021V10.7989C63.3806 11.6394 63.6034 11.8033 64.516 11.8033H66.1741V16.9558C66.1741 20.4271 68.025 21.9737 71.5125 21.9737C72.5365 21.9737 73.5605 21.8939 74.5287 21.7005C74.9443 21.6207 75.0557 21.5114 75.0557 21.1038L74.9186 16.9515C74.9186 16.5985 74.7258 16.464 74.3659 16.5439C74.0617 16.6237 73.7576 16.6784 73.342 16.6784C72.5408 16.6784 71.9581 16.4052 71.9581 15.2411V11.7949H74.0617C74.9743 11.7949 75.1971 11.631 75.1971 10.7905V7.83181C75.1971 6.99128 74.9743 6.82737 74.0617 6.82737L74.0575 6.83578Z" fill="#103559"/>
<path d="M83.2156 6.39478C78.5674 6.39478 76.0413 9.58067 76.0413 13.9737C76.0413 18.3668 78.5674 21.5527 83.2156 21.5527C87.8637 21.5527 90.3899 18.3668 90.3899 13.9737C90.3899 9.58067 87.8637 6.39478 83.2156 6.39478ZM83.2156 16.5954C82.0998 16.5954 81.502 15.5501 81.502 13.9696C81.502 12.3891 82.0998 11.3437 83.2156 11.3437C84.3313 11.3437 84.9292 12.3891 84.9292 13.9696C84.9292 15.5501 84.3313 16.5954 83.2156 16.5954Z" fill="#103559"/>
<path d="M91.7242 6.98825C91.2365 6.63644 90.4378 6.83971 89.9334 7.44168C89.4289 8.04365 89.4163 8.81762 89.8997 9.16942C90.3874 9.52122 91.1861 9.31796 91.6905 8.71598C92.195 8.11401 92.2076 7.34005 91.7242 6.98825Z" fill="#103559"/>
<path d="M80.2481 5.96499C80.8212 5.87697 81.1968 5.15184 81.0861 4.34287C80.9754 3.5339 80.4259 2.94709 79.8528 3.03511C79.2796 3.12313 78.904 3.84827 79.0147 4.65723C79.1254 5.4662 79.6749 6.05302 80.2481 5.96499Z" fill="#103559"/>
<path d="M87.675 6.70877C88.4681 7.10908 89.6685 6.35197 90.352 5.01615C91.0355 3.68033 90.9478 2.27054 90.1505 1.87023C89.3575 1.46992 88.157 2.22703 87.4735 3.56285C86.79 4.89867 86.8777 6.30846 87.675 6.70877Z" fill="#103559"/>
<path d="M83.5697 5.5458C84.3689 5.64752 85.1444 4.60073 85.2987 3.21067C85.453 1.81637 84.9307 0.608539 84.1276 0.506827C83.3284 0.405115 82.5529 1.4519 82.3986 2.84196C82.2443 4.23626 82.7665 5.44409 83.5697 5.5458Z" fill="#103559"/>
</svg>
